<svg width="166" height="188" fill="none" xmlns="http://www.w3.org/2000/svg"><path d="M72.7 168.64c-.11-.13-10.5-13-12.61-15.76a6.86 6.86 0 0 0-5.6-2.68c-2.56 0-4.83 1.17-5.51 1.55l-5.49 2.74c-1.77-.48-5.58-1.95-9.28-6.26-3.28-3.84-3.26-8.99-3.08-11.1l5.9-5.9a6.56 6.56 0 0 0 1.24-8.43l-.22-.3L23.38 104a5.2 5.2 0 0 0-4.18-1.94c-2.85 0-5.88 1.97-6.76 2.59C1.56 112.4.86 119.2.81 119.96l-.02.42.07.4c6.41 35.73 26.03 51.14 35.45 58.55 1.15.9 2.14 1.68 2.86 2.3A25.53 25.53 0 0 0 55.72 188c2.38 0 4.48-.4 6.09-1.17 4.37-2.08 9.43-8.01 10.87-9.78 2.5-3.06 1.29-6.6.17-8.2l-.16-.21ZM58.8 180.5c-.5.24-1.57.49-3.08.49a18.7 18.7 0 0 1-11.94-4.63c-.86-.75-1.92-1.58-3.14-2.55-8.7-6.82-26.73-21-32.78-53.68.29-.98 1.83-4.94 8.62-9.77.65-.45 1.5-.9 2.12-1.14l13.5 17.03-7.53 7.52-.2 1.06c-.08.42-1.91 10.4 4.52 17.94 6.29 7.35 13.25 8.66 14.59 8.85l1.08.16 7.64-3.83.22-.11a5.28 5.28 0 0 1 2.16-.65 1632.26 1632.26 0 0 0 12.5 15.64c-2.56 3.09-6.17 6.66-8.28 7.67ZM132.85 59.82c5.51-5.17 7.16-11.97 5.03-20.78a2.5 2.5 0 0 0-4.1-1.27l-8.22 7.4c-1.44-.8-3.68-2.45-4.47-5.33l6.8-6.73c.95-.94 1-2.45.11-3.44l-.19-.21c-.19-.22-.42-.4-.67-.53a20.4 20.4 0 0 0-8.83-2.12c-4.7 0-8.86 1.92-12 5.56-6 6.94-4.56 15.04-3.54 18.47l-3.49 3.49L89 45.09l4.71-3.27L73.67 28.1l-10.6 10.6 13.72 20.04 3.27-4.71L89.3 64.3 86 67.6a22.31 22.31 0 0 0-6.66-1.06 18.22 18.22 0 0 0-13.96 6.36c-.27.33-6.6 8.17-2.75 18.62a2.5 2.5 0 0 0 3.99 1.02l8.3-7.26c1.32.57 3.62 2.08 4.65 5.93l-7.38 7.51a2.5 2.5 0 0 0 1.22 4.19c.1.02 2.72.62 6.17.62 6.84 0 12.11-2.27 15.25-6.57a20.93 20.93 0 0 0 4-13.08l16.2 16.21.18.16a12.28 12.28 0 0 0 7.45 2.73c2.23 0 4.63-.74 6.85-2.83l5.52-5.51.1-.1c5.02-5.36 2.26-11.7.1-14.3L118.3 63.27c1.02.1 2.15.18 3.32.18 4.89 0 8.67-1.22 11.24-3.64Zm-53.3-13.84-2.73 3.95-7.28-10.63 4.73-4.73 10.63 7.28-3.95 2.73 14.79 13.29-4.1 4.09 1.2-1.2-13.29-14.78ZM93.11 79.5c.11.31 2.62 7.75-2.32 14.53-2.77 3.8-7.75 4.53-11.4 4.51l4.7-4.79c.56-.57.82-1.39.68-2.18-1.8-10.15-9.75-11.49-10.08-11.54-.73-.1-1.48.1-2.03.59l-6.2 5.43a14.7 14.7 0 0 1 2.75-9.93 13.13 13.13 0 0 1 10.13-4.57c3.51 0 6.23 1.21 6.25 1.22a2.5 2.5 0 0 0 2.82-.5l19-19a2.5 2.5 0 0 0 .52-2.76c-.03-.08-3.5-8.34 2.16-14.87a10.48 10.48 0 0 1 8.22-3.83c1.23 0 2.38.18 3.37.42l-5.05 5a2.5 2.5 0 0 0-.73 2.08c1.02 8.3 8.97 11.07 9.31 11.19.86.28 1.8.09 2.47-.52l6.05-5.44c.38 4.86-1.02 8.55-4.3 11.64-2.01 1.89-5.37 2.28-7.82 2.28-3.7 0-6.95-.86-6.99-.87a2.5 2.5 0 0 0-2.43.65L93.7 76.91c-.67.68-.89 1.69-.58 2.6Zm5.5 1.84v.01Zm-.18-1.12.03.16-.03-.16Zm33.1 10.86-5.48 5.48c-3.25 2.97-6.9.43-7.58-.1L99.83 77.83l14.94-15.07-2.04 2.05 18.71 18.7c.46.6 3.1 4.3.09 7.58Zm-15.21-28.05h.02-.02Zm-.85-.15.07.01h-.07Z" fill="#fff"/><path d="M99.16 0a65.92 65.92 0 0 0-8.52 131.28v26.22s57.44-21.24 71.97-73.62l.2-.81.34-1.28.18-.77A65.92 65.92 0 0 0 99.17 0Zm57.35 79.42v.03l-.01.03-.03.13-.12.51-.3 1.16-.1.4-.09.33c-5.56 20.05-18.52 37.7-38.5 52.44a143.42 143.42 0 0 1-19.72 12.18V125.12l-6.1-.79a59 59 0 0 1-51.3-58.4A58.99 58.99 0 0 1 99.16 7a58.99 58.99 0 0 1 57.35 72.42Z" fill="#fff"/></svg>